<mxfile host="app.diagrams.net" modified="2022-10-12T09:53:01.346Z" agent="5.0 (Windows NT 10.0; Win64; x64) AppleWebKit/537.36 (KHTML, like Gecko) Chrome/106.0.0.0 Safari/537.36" etag="GbvbiLWRu-PNSXNRNi1V" version="20.4.0" type="github" pages="2">
  <diagram id="sWcbRu70sIhl7bhhwNqO" name="Page-1">
    <mxGraphModel dx="1422" dy="804" grid="1" gridSize="10" guides="1" tooltips="1" connect="1" arrows="1" fold="1" page="1" pageScale="1" pageWidth="827" pageHeight="1169" math="0" shadow="0">
      <root>
        <mxCell id="0" />
        <mxCell id="1" parent="0" />
        <mxCell id="Ib2bDxPXk9sH93nM67jP-23" style="edgeStyle=orthogonalEdgeStyle;rounded=0;orthogonalLoop=1;jettySize=auto;html=1;entryX=0;entryY=0;entryDx=0;entryDy=52.5;entryPerimeter=0;" parent="1" source="Ib2bDxPXk9sH93nM67jP-1" target="Ib2bDxPXk9sH93nM67jP-4" edge="1">
          <mxGeometry relative="1" as="geometry" />
        </mxCell>
        <mxCell id="Ib2bDxPXk9sH93nM67jP-41" style="edgeStyle=orthogonalEdgeStyle;rounded=0;orthogonalLoop=1;jettySize=auto;html=1;exitX=0;exitY=1;exitDx=0;exitDy=0;entryX=0.25;entryY=0;entryDx=0;entryDy=0;fillColor=#e51400;strokeColor=#B20000;" parent="1" source="Ib2bDxPXk9sH93nM67jP-1" target="Ib2bDxPXk9sH93nM67jP-27" edge="1">
          <mxGeometry relative="1" as="geometry">
            <Array as="points">
              <mxPoint x="475" y="318" />
              <mxPoint x="475" y="610" />
              <mxPoint x="375" y="610" />
            </Array>
          </mxGeometry>
        </mxCell>
        <mxCell id="Ib2bDxPXk9sH93nM67jP-47" value="&lt;span style=&quot;color: rgba(0, 0, 0, 0); font-family: monospace; font-size: 0px; text-align: start; background-color: rgb(248, 249, 250);&quot;&gt;%3CmxGraphModel%3E%3Croot%3E%3CmxCell%20id%3D%220%22%2F%3E%3CmxCell%20id%3D%221%22%20parent%3D%220%22%2F%3E%3CmxCell%20id%3D%222%22%20value%3D%22servicems%22%20style%3D%22ellipse%3BwhiteSpace%3Dwrap%3Bhtml%3D1%3Baspect%3Dfixed%3BfillColor%3D%23ffe6cc%3BstrokeColor%3D%23d79b00%3B%22%20vertex%3D%221%22%20parent%3D%221%22%3E%3CmxGeometry%20x%3D%22470%22%20y%3D%22300%22%20width%3D%2280%22%20height%3D%2280%22%20as%3D%22geometry%22%2F%3E%3C%2FmxCell%3E%3C%2Froot%3E%3C%2FmxGraphModel%3E&lt;/span&gt;" style="edgeLabel;html=1;align=center;verticalAlign=middle;resizable=0;points=[];" parent="Ib2bDxPXk9sH93nM67jP-41" vertex="1" connectable="0">
          <mxGeometry x="-0.6849" relative="1" as="geometry">
            <mxPoint as="offset" />
          </mxGeometry>
        </mxCell>
        <mxCell id="Ib2bDxPXk9sH93nM67jP-48" value="Ping over http" style="edgeLabel;html=1;align=center;verticalAlign=middle;resizable=0;points=[];" parent="Ib2bDxPXk9sH93nM67jP-41" vertex="1" connectable="0">
          <mxGeometry x="-0.6461" y="-2" relative="1" as="geometry">
            <mxPoint as="offset" />
          </mxGeometry>
        </mxCell>
        <mxCell id="Ib2bDxPXk9sH93nM67jP-1" value="onboardingms" style="ellipse;whiteSpace=wrap;html=1;aspect=fixed;fillColor=#ffe6cc;strokeColor=#d79b00;" parent="1" vertex="1">
          <mxGeometry x="865" y="250" width="80" height="80" as="geometry" />
        </mxCell>
        <mxCell id="Ib2bDxPXk9sH93nM67jP-4" value="studentdb" style="shape=cylinder3;whiteSpace=wrap;html=1;boundedLbl=1;backgroundOutline=1;size=15;fillColor=#f5f5f5;strokeColor=#666666;fontColor=#333333;" parent="1" vertex="1">
          <mxGeometry x="1055" y="200" width="60" height="80" as="geometry" />
        </mxCell>
        <mxCell id="Ib2bDxPXk9sH93nM67jP-44" style="edgeStyle=orthogonalEdgeStyle;rounded=0;orthogonalLoop=1;jettySize=auto;html=1;exitX=0;exitY=1;exitDx=0;exitDy=0;entryX=1;entryY=0.6;entryDx=0;entryDy=0;entryPerimeter=0;fillColor=#e51400;strokeColor=#B20000;" parent="1" source="Ib2bDxPXk9sH93nM67jP-7" target="Ib2bDxPXk9sH93nM67jP-27" edge="1">
          <mxGeometry relative="1" as="geometry">
            <Array as="points">
              <mxPoint x="665" y="648" />
              <mxPoint x="665" y="682" />
            </Array>
          </mxGeometry>
        </mxCell>
        <mxCell id="Ib2bDxPXk9sH93nM67jP-51" value="Ping over http" style="edgeLabel;html=1;align=center;verticalAlign=middle;resizable=0;points=[];" parent="Ib2bDxPXk9sH93nM67jP-44" vertex="1" connectable="0">
          <mxGeometry x="-0.1895" y="-1" relative="1" as="geometry">
            <mxPoint x="18" as="offset" />
          </mxGeometry>
        </mxCell>
        <mxCell id="Ib2bDxPXk9sH93nM67jP-7" value="feems" style="ellipse;whiteSpace=wrap;html=1;aspect=fixed;fillColor=#ffe6cc;strokeColor=#d79b00;" parent="1" vertex="1">
          <mxGeometry x="865" y="580" width="80" height="80" as="geometry" />
        </mxCell>
        <mxCell id="Ib2bDxPXk9sH93nM67jP-8" style="edgeStyle=orthogonalEdgeStyle;rounded=0;orthogonalLoop=1;jettySize=auto;html=1;" parent="1" source="Ib2bDxPXk9sH93nM67jP-7" target="Ib2bDxPXk9sH93nM67jP-9" edge="1">
          <mxGeometry relative="1" as="geometry" />
        </mxCell>
        <mxCell id="Ib2bDxPXk9sH93nM67jP-9" value="feedb" style="shape=cylinder3;whiteSpace=wrap;html=1;boundedLbl=1;backgroundOutline=1;size=15;fillColor=#f5f5f5;strokeColor=#666666;fontColor=#333333;" parent="1" vertex="1">
          <mxGeometry x="1055" y="620" width="60" height="80" as="geometry" />
        </mxCell>
        <mxCell id="Ib2bDxPXk9sH93nM67jP-42" style="edgeStyle=orthogonalEdgeStyle;rounded=0;orthogonalLoop=1;jettySize=auto;html=1;exitX=0;exitY=1;exitDx=0;exitDy=0;entryX=0.606;entryY=-0.014;entryDx=0;entryDy=0;entryPerimeter=0;fillColor=#e51400;strokeColor=#B20000;" parent="1" source="Ib2bDxPXk9sH93nM67jP-10" target="Ib2bDxPXk9sH93nM67jP-27" edge="1">
          <mxGeometry relative="1" as="geometry">
            <Array as="points">
              <mxPoint x="595" y="433" />
              <mxPoint x="595" y="550" />
              <mxPoint x="489" y="550" />
            </Array>
          </mxGeometry>
        </mxCell>
        <mxCell id="Ib2bDxPXk9sH93nM67jP-49" value="Ping over http" style="edgeLabel;html=1;align=center;verticalAlign=middle;resizable=0;points=[];" parent="Ib2bDxPXk9sH93nM67jP-42" vertex="1" connectable="0">
          <mxGeometry x="-0.4214" y="3" relative="1" as="geometry">
            <mxPoint as="offset" />
          </mxGeometry>
        </mxCell>
        <mxCell id="UTPwYOCHMbFv52ZK7XhC-8" style="edgeStyle=orthogonalEdgeStyle;rounded=0;orthogonalLoop=1;jettySize=auto;html=1;exitX=1;exitY=1;exitDx=0;exitDy=0;entryX=1;entryY=0;entryDx=0;entryDy=0;" edge="1" parent="1" source="Ib2bDxPXk9sH93nM67jP-10" target="Ib2bDxPXk9sH93nM67jP-24">
          <mxGeometry relative="1" as="geometry">
            <Array as="points">
              <mxPoint x="975" y="433" />
              <mxPoint x="975" y="692" />
            </Array>
          </mxGeometry>
        </mxCell>
        <mxCell id="Ib2bDxPXk9sH93nM67jP-10" value="servicems" style="ellipse;whiteSpace=wrap;html=1;aspect=fixed;fillColor=#ffe6cc;strokeColor=#d79b00;" parent="1" vertex="1">
          <mxGeometry x="865" y="365" width="80" height="80" as="geometry" />
        </mxCell>
        <mxCell id="Ib2bDxPXk9sH93nM67jP-11" style="edgeStyle=orthogonalEdgeStyle;rounded=0;orthogonalLoop=1;jettySize=auto;html=1;" parent="1" source="Ib2bDxPXk9sH93nM67jP-10" target="Ib2bDxPXk9sH93nM67jP-12" edge="1">
          <mxGeometry relative="1" as="geometry" />
        </mxCell>
        <mxCell id="Ib2bDxPXk9sH93nM67jP-12" value="servicedb" style="shape=cylinder3;whiteSpace=wrap;html=1;boundedLbl=1;backgroundOutline=1;size=15;fillColor=#f5f5f5;strokeColor=#666666;fontColor=#333333;" parent="1" vertex="1">
          <mxGeometry x="1055" y="400" width="60" height="80" as="geometry" />
        </mxCell>
        <mxCell id="Ib2bDxPXk9sH93nM67jP-17" style="edgeStyle=orthogonalEdgeStyle;rounded=0;orthogonalLoop=1;jettySize=auto;html=1;" parent="1" source="Ib2bDxPXk9sH93nM67jP-13" target="Ib2bDxPXk9sH93nM67jP-16" edge="1">
          <mxGeometry relative="1" as="geometry" />
        </mxCell>
        <mxCell id="Ib2bDxPXk9sH93nM67jP-13" value="Actor" style="shape=umlActor;verticalLabelPosition=bottom;verticalAlign=top;html=1;outlineConnect=0;" parent="1" vertex="1">
          <mxGeometry x="55" y="310" width="30" height="60" as="geometry" />
        </mxCell>
        <mxCell id="Ib2bDxPXk9sH93nM67jP-53" style="edgeStyle=orthogonalEdgeStyle;rounded=0;orthogonalLoop=1;jettySize=auto;html=1;entryX=0;entryY=0.5;entryDx=0;entryDy=0;exitX=0;exitY=1;exitDx=0;exitDy=0;" parent="1" source="Ib2bDxPXk9sH93nM67jP-16" target="Ib2bDxPXk9sH93nM67jP-27" edge="1">
          <mxGeometry relative="1" as="geometry">
            <Array as="points">
              <mxPoint x="206" y="540" />
              <mxPoint x="205" y="675" />
            </Array>
          </mxGeometry>
        </mxCell>
        <mxCell id="Ib2bDxPXk9sH93nM67jP-16" value="student-client" style="ellipse;whiteSpace=wrap;html=1;aspect=fixed;fillColor=#fff2cc;strokeColor=#d6b656;" parent="1" vertex="1">
          <mxGeometry x="175" y="300" width="210" height="210" as="geometry" />
        </mxCell>
        <mxCell id="Ib2bDxPXk9sH93nM67jP-19" style="edgeStyle=orthogonalEdgeStyle;rounded=0;orthogonalLoop=1;jettySize=auto;html=1;" parent="1" source="Ib2bDxPXk9sH93nM67jP-18" target="Ib2bDxPXk9sH93nM67jP-4" edge="1">
          <mxGeometry relative="1" as="geometry" />
        </mxCell>
        <mxCell id="Ib2bDxPXk9sH93nM67jP-40" style="edgeStyle=orthogonalEdgeStyle;rounded=0;orthogonalLoop=1;jettySize=auto;html=1;exitX=0;exitY=1;exitDx=0;exitDy=0;fillColor=#e51400;strokeColor=#B20000;entryX=0.372;entryY=0;entryDx=0;entryDy=0;entryPerimeter=0;" parent="1" edge="1">
          <mxGeometry relative="1" as="geometry">
            <mxPoint x="875.7157287525379" y="218.28427124746213" as="sourcePoint" />
            <mxPoint x="413.03999999999996" y="640" as="targetPoint" />
            <Array as="points">
              <mxPoint x="444" y="218" />
              <mxPoint x="444" y="600" />
              <mxPoint x="411" y="600" />
              <mxPoint x="411" y="620" />
              <mxPoint x="413" y="620" />
            </Array>
          </mxGeometry>
        </mxCell>
        <mxCell id="Ib2bDxPXk9sH93nM67jP-46" value="Ping over http" style="edgeLabel;html=1;align=center;verticalAlign=middle;resizable=0;points=[];" parent="Ib2bDxPXk9sH93nM67jP-40" vertex="1" connectable="0">
          <mxGeometry x="-0.7553" y="-2" relative="1" as="geometry">
            <mxPoint as="offset" />
          </mxGeometry>
        </mxCell>
        <mxCell id="Ib2bDxPXk9sH93nM67jP-18" value="onboardingms" style="ellipse;whiteSpace=wrap;html=1;aspect=fixed;fillColor=#ffe6cc;strokeColor=#d79b00;" parent="1" vertex="1">
          <mxGeometry x="865" y="150" width="80" height="80" as="geometry" />
        </mxCell>
        <mxCell id="Ib2bDxPXk9sH93nM67jP-21" style="edgeStyle=orthogonalEdgeStyle;rounded=0;orthogonalLoop=1;jettySize=auto;html=1;entryX=0;entryY=0.588;entryDx=0;entryDy=0;entryPerimeter=0;" parent="1" source="Ib2bDxPXk9sH93nM67jP-20" target="Ib2bDxPXk9sH93nM67jP-12" edge="1">
          <mxGeometry relative="1" as="geometry">
            <mxPoint x="1065" y="450" as="targetPoint" />
          </mxGeometry>
        </mxCell>
        <mxCell id="Ib2bDxPXk9sH93nM67jP-43" style="edgeStyle=orthogonalEdgeStyle;rounded=0;orthogonalLoop=1;jettySize=auto;html=1;exitX=0;exitY=1;exitDx=0;exitDy=0;entryX=0.75;entryY=0;entryDx=0;entryDy=0;fillColor=#e51400;strokeColor=#B20000;" parent="1" source="Ib2bDxPXk9sH93nM67jP-20" target="Ib2bDxPXk9sH93nM67jP-27" edge="1">
          <mxGeometry relative="1" as="geometry">
            <Array as="points">
              <mxPoint x="605" y="528" />
              <mxPoint x="605" y="590" />
              <mxPoint x="535" y="590" />
            </Array>
          </mxGeometry>
        </mxCell>
        <mxCell id="Ib2bDxPXk9sH93nM67jP-50" value="Ping over http" style="edgeLabel;html=1;align=center;verticalAlign=middle;resizable=0;points=[];" parent="Ib2bDxPXk9sH93nM67jP-43" vertex="1" connectable="0">
          <mxGeometry x="-0.1191" relative="1" as="geometry">
            <mxPoint as="offset" />
          </mxGeometry>
        </mxCell>
        <mxCell id="UTPwYOCHMbFv52ZK7XhC-7" style="edgeStyle=orthogonalEdgeStyle;rounded=0;orthogonalLoop=1;jettySize=auto;html=1;exitX=0.5;exitY=1;exitDx=0;exitDy=0;entryX=0.5;entryY=0;entryDx=0;entryDy=0;" edge="1" parent="1" source="Ib2bDxPXk9sH93nM67jP-20" target="Ib2bDxPXk9sH93nM67jP-7">
          <mxGeometry relative="1" as="geometry" />
        </mxCell>
        <mxCell id="Ib2bDxPXk9sH93nM67jP-20" value="servicems" style="ellipse;whiteSpace=wrap;html=1;aspect=fixed;fillColor=#ffe6cc;strokeColor=#d79b00;" parent="1" vertex="1">
          <mxGeometry x="865" y="460" width="80" height="80" as="geometry" />
        </mxCell>
        <mxCell id="Ib2bDxPXk9sH93nM67jP-45" style="edgeStyle=orthogonalEdgeStyle;rounded=0;orthogonalLoop=1;jettySize=auto;html=1;exitX=0;exitY=0;exitDx=0;exitDy=0;entryX=1;entryY=0.75;entryDx=0;entryDy=0;fillColor=#e51400;strokeColor=#B20000;" parent="1" source="Ib2bDxPXk9sH93nM67jP-24" target="Ib2bDxPXk9sH93nM67jP-27" edge="1">
          <mxGeometry relative="1" as="geometry" />
        </mxCell>
        <mxCell id="Ib2bDxPXk9sH93nM67jP-52" value="Ping over http" style="edgeLabel;html=1;align=center;verticalAlign=middle;resizable=0;points=[];" parent="Ib2bDxPXk9sH93nM67jP-45" vertex="1" connectable="0">
          <mxGeometry x="-0.1184" y="4" relative="1" as="geometry">
            <mxPoint x="24" y="-6" as="offset" />
          </mxGeometry>
        </mxCell>
        <mxCell id="Ib2bDxPXk9sH93nM67jP-24" value="feems" style="ellipse;whiteSpace=wrap;html=1;aspect=fixed;fillColor=#ffe6cc;strokeColor=#d79b00;" parent="1" vertex="1">
          <mxGeometry x="865" y="680" width="80" height="80" as="geometry" />
        </mxCell>
        <mxCell id="Ib2bDxPXk9sH93nM67jP-25" style="edgeStyle=orthogonalEdgeStyle;rounded=0;orthogonalLoop=1;jettySize=auto;html=1;entryX=0;entryY=0;entryDx=0;entryDy=52.5;entryPerimeter=0;" parent="1" source="Ib2bDxPXk9sH93nM67jP-24" target="Ib2bDxPXk9sH93nM67jP-9" edge="1">
          <mxGeometry relative="1" as="geometry">
            <mxPoint x="1065" y="760" as="targetPoint" />
          </mxGeometry>
        </mxCell>
        <mxCell id="Ib2bDxPXk9sH93nM67jP-29" style="edgeStyle=orthogonalEdgeStyle;rounded=0;orthogonalLoop=1;jettySize=auto;html=1;entryX=0.013;entryY=0.613;entryDx=0;entryDy=0;entryPerimeter=0;" parent="1" source="Ib2bDxPXk9sH93nM67jP-26" target="Ib2bDxPXk9sH93nM67jP-1" edge="1">
          <mxGeometry relative="1" as="geometry">
            <Array as="points">
              <mxPoint x="455" y="427" />
              <mxPoint x="455" y="299" />
            </Array>
          </mxGeometry>
        </mxCell>
        <mxCell id="Ib2bDxPXk9sH93nM67jP-30" style="edgeStyle=orthogonalEdgeStyle;rounded=0;orthogonalLoop=1;jettySize=auto;html=1;exitX=0.855;exitY=0.145;exitDx=0;exitDy=0;exitPerimeter=0;entryX=0;entryY=0.5;entryDx=0;entryDy=0;" parent="1" source="Ib2bDxPXk9sH93nM67jP-26" target="Ib2bDxPXk9sH93nM67jP-18" edge="1">
          <mxGeometry relative="1" as="geometry">
            <Array as="points">
              <mxPoint x="415" y="411" />
              <mxPoint x="415" y="190" />
            </Array>
          </mxGeometry>
        </mxCell>
        <mxCell id="Ib2bDxPXk9sH93nM67jP-31" style="edgeStyle=orthogonalEdgeStyle;rounded=0;orthogonalLoop=1;jettySize=auto;html=1;exitX=0.855;exitY=0.855;exitDx=0;exitDy=0;exitPerimeter=0;entryX=0;entryY=0.5;entryDx=0;entryDy=0;" parent="1" source="Ib2bDxPXk9sH93nM67jP-26" target="Ib2bDxPXk9sH93nM67jP-10" edge="1">
          <mxGeometry relative="1" as="geometry">
            <Array as="points">
              <mxPoint x="495" y="443" />
              <mxPoint x="495" y="330" />
              <mxPoint x="825" y="330" />
              <mxPoint x="825" y="405" />
            </Array>
          </mxGeometry>
        </mxCell>
        <mxCell id="Ib2bDxPXk9sH93nM67jP-32" style="edgeStyle=orthogonalEdgeStyle;rounded=0;orthogonalLoop=1;jettySize=auto;html=1;exitX=0.5;exitY=1;exitDx=0;exitDy=0;exitPerimeter=0;entryX=0;entryY=0.5;entryDx=0;entryDy=0;" parent="1" source="Ib2bDxPXk9sH93nM67jP-26" target="Ib2bDxPXk9sH93nM67jP-20" edge="1">
          <mxGeometry relative="1" as="geometry">
            <Array as="points">
              <mxPoint x="341" y="470" />
              <mxPoint x="525" y="470" />
              <mxPoint x="525" y="360" />
              <mxPoint x="795" y="360" />
              <mxPoint x="795" y="500" />
            </Array>
          </mxGeometry>
        </mxCell>
        <mxCell id="Ib2bDxPXk9sH93nM67jP-33" style="edgeStyle=orthogonalEdgeStyle;rounded=0;orthogonalLoop=1;jettySize=auto;html=1;exitX=0.145;exitY=0.855;exitDx=0;exitDy=0;exitPerimeter=0;entryX=0;entryY=0.5;entryDx=0;entryDy=0;" parent="1" source="Ib2bDxPXk9sH93nM67jP-26" target="Ib2bDxPXk9sH93nM67jP-7" edge="1">
          <mxGeometry relative="1" as="geometry">
            <Array as="points">
              <mxPoint x="323" y="490" />
              <mxPoint x="555" y="490" />
              <mxPoint x="555" y="420" />
              <mxPoint x="775" y="420" />
              <mxPoint x="775" y="620" />
            </Array>
          </mxGeometry>
        </mxCell>
        <mxCell id="Ib2bDxPXk9sH93nM67jP-34" style="edgeStyle=orthogonalEdgeStyle;rounded=0;orthogonalLoop=1;jettySize=auto;html=1;exitX=0;exitY=0.5;exitDx=0;exitDy=0;exitPerimeter=0;entryX=0;entryY=0.5;entryDx=0;entryDy=0;" parent="1" source="Ib2bDxPXk9sH93nM67jP-26" target="Ib2bDxPXk9sH93nM67jP-24" edge="1">
          <mxGeometry relative="1" as="geometry">
            <Array as="points">
              <mxPoint x="305" y="427" />
              <mxPoint x="305" y="510" />
              <mxPoint x="735" y="510" />
              <mxPoint x="735" y="720" />
            </Array>
          </mxGeometry>
        </mxCell>
        <mxCell id="Ib2bDxPXk9sH93nM67jP-26" value="" style="outlineConnect=0;dashed=0;verticalLabelPosition=bottom;verticalAlign=top;align=center;html=1;shape=mxgraph.aws3.classic_load_balancer;fillColor=#F58534;gradientColor=none;" parent="1" vertex="1">
          <mxGeometry x="316" y="404" width="49" height="46" as="geometry" />
        </mxCell>
        <mxCell id="Ib2bDxPXk9sH93nM67jP-56" style="edgeStyle=orthogonalEdgeStyle;rounded=0;orthogonalLoop=1;jettySize=auto;html=1;exitX=0;exitY=0.25;exitDx=0;exitDy=0;entryX=0.395;entryY=0.984;entryDx=0;entryDy=0;entryPerimeter=0;" parent="1" source="Ib2bDxPXk9sH93nM67jP-27" target="Ib2bDxPXk9sH93nM67jP-16" edge="1">
          <mxGeometry relative="1" as="geometry" />
        </mxCell>
        <mxCell id="Ib2bDxPXk9sH93nM67jP-57" value="Provide&amp;nbsp; Instance" style="edgeLabel;html=1;align=center;verticalAlign=middle;resizable=0;points=[];" parent="Ib2bDxPXk9sH93nM67jP-56" vertex="1" connectable="0">
          <mxGeometry x="0.4061" relative="1" as="geometry">
            <mxPoint as="offset" />
          </mxGeometry>
        </mxCell>
        <mxCell id="Ib2bDxPXk9sH93nM67jP-27" value="microservice-springcloud" style="rounded=1;whiteSpace=wrap;html=1;fillColor=#dae8fc;strokeColor=#6c8ebf;" parent="1" vertex="1">
          <mxGeometry x="295" y="640" width="320" height="70" as="geometry" />
        </mxCell>
        <mxCell id="Ib2bDxPXk9sH93nM67jP-35" value="&lt;b&gt;Service Resigistry / Service&amp;nbsp; Discovery&lt;/b&gt;" style="text;html=1;align=center;verticalAlign=middle;resizable=0;points=[];autosize=1;strokeColor=none;fillColor=none;" parent="1" vertex="1">
          <mxGeometry x="65" y="730" width="240" height="30" as="geometry" />
        </mxCell>
        <mxCell id="Ib2bDxPXk9sH93nM67jP-36" value="microservice-springcloud" style="rounded=1;whiteSpace=wrap;html=1;fillColor=#dae8fc;strokeColor=#6c8ebf;" parent="1" vertex="1">
          <mxGeometry x="295" y="780" width="320" height="70" as="geometry" />
        </mxCell>
        <mxCell id="Ib2bDxPXk9sH93nM67jP-39" value="Peer Aware" style="endArrow=classic;startArrow=classic;html=1;rounded=0;exitX=0.5;exitY=0;exitDx=0;exitDy=0;exitPerimeter=0;entryX=0.5;entryY=1;entryDx=0;entryDy=0;" parent="1" source="Ib2bDxPXk9sH93nM67jP-36" target="Ib2bDxPXk9sH93nM67jP-27" edge="1">
          <mxGeometry width="50" height="50" relative="1" as="geometry">
            <mxPoint x="415" y="760" as="sourcePoint" />
            <mxPoint x="465" y="710" as="targetPoint" />
          </mxGeometry>
        </mxCell>
        <mxCell id="Ib2bDxPXk9sH93nM67jP-54" value="Get Instance" style="text;html=1;align=center;verticalAlign=middle;resizable=0;points=[];autosize=1;strokeColor=none;fillColor=none;" parent="1" vertex="1">
          <mxGeometry x="140" y="585" width="90" height="30" as="geometry" />
        </mxCell>
        <mxCell id="UTPwYOCHMbFv52ZK7XhC-1" value="Instance 1" style="text;html=1;align=center;verticalAlign=middle;resizable=0;points=[];autosize=1;strokeColor=none;fillColor=none;" vertex="1" parent="1">
          <mxGeometry x="925" y="120" width="80" height="30" as="geometry" />
        </mxCell>
        <mxCell id="UTPwYOCHMbFv52ZK7XhC-2" value="Instance 1" style="text;html=1;align=center;verticalAlign=middle;resizable=0;points=[];autosize=1;strokeColor=none;fillColor=none;" vertex="1" parent="1">
          <mxGeometry x="925" y="570" width="80" height="30" as="geometry" />
        </mxCell>
        <mxCell id="UTPwYOCHMbFv52ZK7XhC-3" value="Instance 1" style="text;html=1;align=center;verticalAlign=middle;resizable=0;points=[];autosize=1;strokeColor=none;fillColor=none;" vertex="1" parent="1">
          <mxGeometry x="925" y="350" width="80" height="30" as="geometry" />
        </mxCell>
        <mxCell id="UTPwYOCHMbFv52ZK7XhC-4" value="Instance 2" style="text;html=1;align=center;verticalAlign=middle;resizable=0;points=[];autosize=1;strokeColor=none;fillColor=none;" vertex="1" parent="1">
          <mxGeometry x="935" y="300" width="80" height="30" as="geometry" />
        </mxCell>
        <mxCell id="UTPwYOCHMbFv52ZK7XhC-5" value="Instance 2" style="text;html=1;align=center;verticalAlign=middle;resizable=0;points=[];autosize=1;strokeColor=none;fillColor=none;" vertex="1" parent="1">
          <mxGeometry x="935" y="510" width="80" height="30" as="geometry" />
        </mxCell>
        <mxCell id="UTPwYOCHMbFv52ZK7XhC-6" value="Instance 2" style="text;html=1;align=center;verticalAlign=middle;resizable=0;points=[];autosize=1;strokeColor=none;fillColor=none;" vertex="1" parent="1">
          <mxGeometry x="935" y="720" width="80" height="30" as="geometry" />
        </mxCell>
        <mxCell id="UTPwYOCHMbFv52ZK7XhC-9" value="&lt;b&gt;&lt;font style=&quot;font-size: 14px;&quot;&gt;Microservices with highly scalable and highly available&lt;/font&gt;&lt;/b&gt;" style="text;html=1;align=center;verticalAlign=middle;resizable=0;points=[];autosize=1;strokeColor=none;fillColor=none;" vertex="1" parent="1">
          <mxGeometry x="390" y="50" width="390" height="30" as="geometry" />
        </mxCell>
      </root>
    </mxGraphModel>
  </diagram>
  <diagram id="p8piD2SMsgvlH9p8ZaVb" name="Page-2">
    <mxGraphModel dx="1422" dy="804" grid="1" gridSize="10" guides="1" tooltips="1" connect="1" arrows="1" fold="1" page="1" pageScale="1" pageWidth="827" pageHeight="1169" math="0" shadow="0">
      <root>
        <mxCell id="0" />
        <mxCell id="1" parent="0" />
        <mxCell id="VsX81NJY4DJ-RuFfTPW--6" value="studentdb" style="shape=cylinder3;whiteSpace=wrap;html=1;boundedLbl=1;backgroundOutline=1;size=15;fillColor=#f5f5f5;strokeColor=#666666;fontColor=#333333;" vertex="1" parent="1">
          <mxGeometry x="1060" y="110" width="60" height="80" as="geometry" />
        </mxCell>
        <mxCell id="VsX81NJY4DJ-RuFfTPW--7" style="edgeStyle=orthogonalEdgeStyle;rounded=0;orthogonalLoop=1;jettySize=auto;html=1;exitX=0;exitY=1;exitDx=0;exitDy=0;entryX=1;entryY=0.6;entryDx=0;entryDy=0;entryPerimeter=0;fillColor=#e51400;strokeColor=#B20000;" edge="1" parent="1" source="VsX81NJY4DJ-RuFfTPW--9" target="VsX81NJY4DJ-RuFfTPW--42">
          <mxGeometry relative="1" as="geometry">
            <Array as="points">
              <mxPoint x="670" y="608" />
              <mxPoint x="670" y="642" />
            </Array>
          </mxGeometry>
        </mxCell>
        <mxCell id="VsX81NJY4DJ-RuFfTPW--8" value="Ping over http" style="edgeLabel;html=1;align=center;verticalAlign=middle;resizable=0;points=[];" vertex="1" connectable="0" parent="VsX81NJY4DJ-RuFfTPW--7">
          <mxGeometry x="-0.1895" y="-1" relative="1" as="geometry">
            <mxPoint x="18" as="offset" />
          </mxGeometry>
        </mxCell>
        <mxCell id="VsX81NJY4DJ-RuFfTPW--9" value="feems" style="ellipse;whiteSpace=wrap;html=1;aspect=fixed;fillColor=#ffe6cc;strokeColor=#d79b00;" vertex="1" parent="1">
          <mxGeometry x="870" y="510" width="80" height="80" as="geometry" />
        </mxCell>
        <mxCell id="VsX81NJY4DJ-RuFfTPW--10" style="edgeStyle=orthogonalEdgeStyle;rounded=0;orthogonalLoop=1;jettySize=auto;html=1;" edge="1" parent="1" source="VsX81NJY4DJ-RuFfTPW--9" target="VsX81NJY4DJ-RuFfTPW--11">
          <mxGeometry relative="1" as="geometry" />
        </mxCell>
        <mxCell id="VsX81NJY4DJ-RuFfTPW--11" value="feedb" style="shape=cylinder3;whiteSpace=wrap;html=1;boundedLbl=1;backgroundOutline=1;size=15;fillColor=#f5f5f5;strokeColor=#666666;fontColor=#333333;" vertex="1" parent="1">
          <mxGeometry x="1060" y="510" width="60" height="80" as="geometry" />
        </mxCell>
        <mxCell id="VsX81NJY4DJ-RuFfTPW--69" style="edgeStyle=orthogonalEdgeStyle;rounded=0;orthogonalLoop=1;jettySize=auto;html=1;exitX=0.5;exitY=1;exitDx=0;exitDy=0;entryX=0;entryY=0.8;entryDx=0;entryDy=0;" edge="1" parent="1" source="VsX81NJY4DJ-RuFfTPW--14" target="VsX81NJY4DJ-RuFfTPW--68">
          <mxGeometry relative="1" as="geometry" />
        </mxCell>
        <mxCell id="VsX81NJY4DJ-RuFfTPW--71" style="edgeStyle=orthogonalEdgeStyle;rounded=0;orthogonalLoop=1;jettySize=auto;html=1;exitX=0;exitY=1;exitDx=0;exitDy=0;entryX=0.559;entryY=-0.029;entryDx=0;entryDy=0;entryPerimeter=0;fillColor=#e51400;strokeColor=#B20000;" edge="1" parent="1" source="VsX81NJY4DJ-RuFfTPW--14" target="VsX81NJY4DJ-RuFfTPW--42">
          <mxGeometry relative="1" as="geometry" />
        </mxCell>
        <mxCell id="VsX81NJY4DJ-RuFfTPW--74" value="Ping Over Http" style="edgeLabel;html=1;align=center;verticalAlign=middle;resizable=0;points=[];" vertex="1" connectable="0" parent="VsX81NJY4DJ-RuFfTPW--71">
          <mxGeometry x="-0.3327" y="-2" relative="1" as="geometry">
            <mxPoint as="offset" />
          </mxGeometry>
        </mxCell>
        <mxCell id="VsX81NJY4DJ-RuFfTPW--14" value="servicems" style="ellipse;whiteSpace=wrap;html=1;aspect=fixed;fillColor=#ffe6cc;strokeColor=#d79b00;" vertex="1" parent="1">
          <mxGeometry x="870" y="250" width="80" height="80" as="geometry" />
        </mxCell>
        <mxCell id="VsX81NJY4DJ-RuFfTPW--15" style="edgeStyle=orthogonalEdgeStyle;rounded=0;orthogonalLoop=1;jettySize=auto;html=1;" edge="1" parent="1" source="VsX81NJY4DJ-RuFfTPW--14" target="VsX81NJY4DJ-RuFfTPW--16">
          <mxGeometry relative="1" as="geometry" />
        </mxCell>
        <mxCell id="VsX81NJY4DJ-RuFfTPW--16" value="servicedb" style="shape=cylinder3;whiteSpace=wrap;html=1;boundedLbl=1;backgroundOutline=1;size=15;fillColor=#f5f5f5;strokeColor=#666666;fontColor=#333333;" vertex="1" parent="1">
          <mxGeometry x="1060" y="250" width="60" height="80" as="geometry" />
        </mxCell>
        <mxCell id="VsX81NJY4DJ-RuFfTPW--17" style="edgeStyle=orthogonalEdgeStyle;rounded=0;orthogonalLoop=1;jettySize=auto;html=1;" edge="1" parent="1" source="VsX81NJY4DJ-RuFfTPW--18" target="VsX81NJY4DJ-RuFfTPW--20">
          <mxGeometry relative="1" as="geometry" />
        </mxCell>
        <mxCell id="VsX81NJY4DJ-RuFfTPW--18" value="Actor" style="shape=umlActor;verticalLabelPosition=bottom;verticalAlign=top;html=1;outlineConnect=0;" vertex="1" parent="1">
          <mxGeometry x="60" y="270" width="30" height="60" as="geometry" />
        </mxCell>
        <mxCell id="VsX81NJY4DJ-RuFfTPW--19" style="edgeStyle=orthogonalEdgeStyle;rounded=0;orthogonalLoop=1;jettySize=auto;html=1;entryX=0;entryY=0.5;entryDx=0;entryDy=0;exitX=0;exitY=1;exitDx=0;exitDy=0;" edge="1" parent="1" source="VsX81NJY4DJ-RuFfTPW--20" target="VsX81NJY4DJ-RuFfTPW--42">
          <mxGeometry relative="1" as="geometry">
            <Array as="points">
              <mxPoint x="211" y="500" />
              <mxPoint x="210" y="635" />
            </Array>
          </mxGeometry>
        </mxCell>
        <mxCell id="VsX81NJY4DJ-RuFfTPW--20" value="student-client" style="ellipse;whiteSpace=wrap;html=1;aspect=fixed;fillColor=#fff2cc;strokeColor=#d6b656;" vertex="1" parent="1">
          <mxGeometry x="180" y="260" width="210" height="210" as="geometry" />
        </mxCell>
        <mxCell id="VsX81NJY4DJ-RuFfTPW--21" style="edgeStyle=orthogonalEdgeStyle;rounded=0;orthogonalLoop=1;jettySize=auto;html=1;" edge="1" parent="1" source="VsX81NJY4DJ-RuFfTPW--24" target="VsX81NJY4DJ-RuFfTPW--6">
          <mxGeometry relative="1" as="geometry" />
        </mxCell>
        <mxCell id="VsX81NJY4DJ-RuFfTPW--72" style="edgeStyle=orthogonalEdgeStyle;rounded=0;orthogonalLoop=1;jettySize=auto;html=1;exitX=0;exitY=1;exitDx=0;exitDy=0;entryX=0.5;entryY=0;entryDx=0;entryDy=0;fillColor=#e51400;strokeColor=#B20000;" edge="1" parent="1" source="VsX81NJY4DJ-RuFfTPW--24" target="VsX81NJY4DJ-RuFfTPW--42">
          <mxGeometry relative="1" as="geometry" />
        </mxCell>
        <mxCell id="VsX81NJY4DJ-RuFfTPW--73" value="Ping Over Http" style="edgeLabel;html=1;align=center;verticalAlign=middle;resizable=0;points=[];" vertex="1" connectable="0" parent="VsX81NJY4DJ-RuFfTPW--72">
          <mxGeometry x="-0.3438" y="3" relative="1" as="geometry">
            <mxPoint as="offset" />
          </mxGeometry>
        </mxCell>
        <mxCell id="VsX81NJY4DJ-RuFfTPW--24" value="onboardingms" style="ellipse;whiteSpace=wrap;html=1;aspect=fixed;fillColor=#ffe6cc;strokeColor=#d79b00;" vertex="1" parent="1">
          <mxGeometry x="870" y="110" width="80" height="80" as="geometry" />
        </mxCell>
        <mxCell id="VsX81NJY4DJ-RuFfTPW--34" style="edgeStyle=orthogonalEdgeStyle;rounded=0;orthogonalLoop=1;jettySize=auto;html=1;exitX=0.855;exitY=0.145;exitDx=0;exitDy=0;exitPerimeter=0;entryX=0;entryY=0.8;entryDx=0;entryDy=0;" edge="1" parent="1" source="VsX81NJY4DJ-RuFfTPW--39" target="VsX81NJY4DJ-RuFfTPW--47">
          <mxGeometry relative="1" as="geometry">
            <Array as="points">
              <mxPoint x="530" y="371" />
              <mxPoint x="530" y="156" />
            </Array>
          </mxGeometry>
        </mxCell>
        <mxCell id="VsX81NJY4DJ-RuFfTPW--35" style="edgeStyle=orthogonalEdgeStyle;rounded=0;orthogonalLoop=1;jettySize=auto;html=1;exitX=1;exitY=0.5;exitDx=0;exitDy=0;exitPerimeter=0;entryX=0;entryY=0.8;entryDx=0;entryDy=0;" edge="1" parent="1" source="VsX81NJY4DJ-RuFfTPW--39" target="VsX81NJY4DJ-RuFfTPW--57">
          <mxGeometry relative="1" as="geometry">
            <Array as="points">
              <mxPoint x="560" y="387" />
              <mxPoint x="560" y="286" />
            </Array>
          </mxGeometry>
        </mxCell>
        <mxCell id="VsX81NJY4DJ-RuFfTPW--64" style="edgeStyle=orthogonalEdgeStyle;rounded=0;orthogonalLoop=1;jettySize=auto;html=1;exitX=0.855;exitY=0.855;exitDx=0;exitDy=0;exitPerimeter=0;entryX=0;entryY=0.8;entryDx=0;entryDy=0;" edge="1" parent="1" source="VsX81NJY4DJ-RuFfTPW--39" target="VsX81NJY4DJ-RuFfTPW--63">
          <mxGeometry relative="1" as="geometry">
            <Array as="points">
              <mxPoint x="590" y="403" />
              <mxPoint x="590" y="541" />
            </Array>
          </mxGeometry>
        </mxCell>
        <mxCell id="VsX81NJY4DJ-RuFfTPW--39" value="" style="outlineConnect=0;dashed=0;verticalLabelPosition=bottom;verticalAlign=top;align=center;html=1;shape=mxgraph.aws3.classic_load_balancer;fillColor=#F58534;gradientColor=none;" vertex="1" parent="1">
          <mxGeometry x="321" y="364" width="49" height="46" as="geometry" />
        </mxCell>
        <mxCell id="VsX81NJY4DJ-RuFfTPW--40" style="edgeStyle=orthogonalEdgeStyle;rounded=0;orthogonalLoop=1;jettySize=auto;html=1;exitX=0;exitY=0.25;exitDx=0;exitDy=0;entryX=0.395;entryY=0.984;entryDx=0;entryDy=0;entryPerimeter=0;" edge="1" parent="1" source="VsX81NJY4DJ-RuFfTPW--42" target="VsX81NJY4DJ-RuFfTPW--20">
          <mxGeometry relative="1" as="geometry" />
        </mxCell>
        <mxCell id="VsX81NJY4DJ-RuFfTPW--41" value="Provide&amp;nbsp; Instance" style="edgeLabel;html=1;align=center;verticalAlign=middle;resizable=0;points=[];" vertex="1" connectable="0" parent="VsX81NJY4DJ-RuFfTPW--40">
          <mxGeometry x="0.4061" relative="1" as="geometry">
            <mxPoint as="offset" />
          </mxGeometry>
        </mxCell>
        <mxCell id="VsX81NJY4DJ-RuFfTPW--42" value="microservice-springcloud" style="rounded=1;whiteSpace=wrap;html=1;fillColor=#dae8fc;strokeColor=#6c8ebf;" vertex="1" parent="1">
          <mxGeometry x="300" y="600" width="320" height="70" as="geometry" />
        </mxCell>
        <mxCell id="VsX81NJY4DJ-RuFfTPW--43" value="&lt;b&gt;Service Resigistry / Service&amp;nbsp; Discovery&lt;/b&gt;" style="text;html=1;align=center;verticalAlign=middle;resizable=0;points=[];autosize=1;strokeColor=none;fillColor=none;" vertex="1" parent="1">
          <mxGeometry x="70" y="690" width="240" height="30" as="geometry" />
        </mxCell>
        <mxCell id="VsX81NJY4DJ-RuFfTPW--44" value="microservice-springcloud" style="rounded=1;whiteSpace=wrap;html=1;fillColor=#dae8fc;strokeColor=#6c8ebf;" vertex="1" parent="1">
          <mxGeometry x="300" y="740" width="320" height="70" as="geometry" />
        </mxCell>
        <mxCell id="VsX81NJY4DJ-RuFfTPW--45" value="Peer Aware" style="endArrow=classic;startArrow=classic;html=1;rounded=0;exitX=0.5;exitY=0;exitDx=0;exitDy=0;exitPerimeter=0;entryX=0.5;entryY=1;entryDx=0;entryDy=0;" edge="1" parent="1" source="VsX81NJY4DJ-RuFfTPW--44" target="VsX81NJY4DJ-RuFfTPW--42">
          <mxGeometry width="50" height="50" relative="1" as="geometry">
            <mxPoint x="420" y="720" as="sourcePoint" />
            <mxPoint x="470" y="670" as="targetPoint" />
          </mxGeometry>
        </mxCell>
        <mxCell id="VsX81NJY4DJ-RuFfTPW--46" value="Get Instance" style="text;html=1;align=center;verticalAlign=middle;resizable=0;points=[];autosize=1;strokeColor=none;fillColor=none;" vertex="1" parent="1">
          <mxGeometry x="145" y="545" width="90" height="30" as="geometry" />
        </mxCell>
        <mxCell id="VsX81NJY4DJ-RuFfTPW--48" style="edgeStyle=orthogonalEdgeStyle;rounded=0;orthogonalLoop=1;jettySize=auto;html=1;entryX=0;entryY=0.5;entryDx=0;entryDy=0;exitX=1;exitY=0.8;exitDx=0;exitDy=0;" edge="1" parent="1" source="VsX81NJY4DJ-RuFfTPW--47" target="VsX81NJY4DJ-RuFfTPW--24">
          <mxGeometry relative="1" as="geometry">
            <mxPoint x="700" y="150" as="sourcePoint" />
          </mxGeometry>
        </mxCell>
        <mxCell id="VsX81NJY4DJ-RuFfTPW--47" value="" style="pointerEvents=1;verticalLabelPosition=bottom;shadow=0;dashed=0;align=center;html=1;verticalAlign=top;shape=mxgraph.electrical.electro-mechanical.circuitBreaker2;elSwitchState=off;" vertex="1" parent="1">
          <mxGeometry x="620" y="140" width="75" height="20" as="geometry" />
        </mxCell>
        <mxCell id="VsX81NJY4DJ-RuFfTPW--76" style="edgeStyle=orthogonalEdgeStyle;rounded=0;orthogonalLoop=1;jettySize=auto;html=1;exitX=1;exitY=0.8;exitDx=0;exitDy=0;entryX=0;entryY=0.5;entryDx=0;entryDy=0;" edge="1" parent="1" source="VsX81NJY4DJ-RuFfTPW--57" target="VsX81NJY4DJ-RuFfTPW--14">
          <mxGeometry relative="1" as="geometry" />
        </mxCell>
        <mxCell id="VsX81NJY4DJ-RuFfTPW--57" value="" style="pointerEvents=1;verticalLabelPosition=bottom;shadow=0;dashed=0;align=center;html=1;verticalAlign=top;shape=mxgraph.electrical.electro-mechanical.circuitBreaker2;elSwitchState=off;" vertex="1" parent="1">
          <mxGeometry x="615" y="270" width="75" height="20" as="geometry" />
        </mxCell>
        <mxCell id="VsX81NJY4DJ-RuFfTPW--60" value="Circuit Breaker" style="text;html=1;align=center;verticalAlign=middle;resizable=0;points=[];autosize=1;strokeColor=none;fillColor=none;" vertex="1" parent="1">
          <mxGeometry x="590" y="115" width="100" height="30" as="geometry" />
        </mxCell>
        <mxCell id="VsX81NJY4DJ-RuFfTPW--61" value="Circuit Breaker" style="text;html=1;align=center;verticalAlign=middle;resizable=0;points=[];autosize=1;strokeColor=none;fillColor=none;" vertex="1" parent="1">
          <mxGeometry x="590" y="230" width="100" height="30" as="geometry" />
        </mxCell>
        <mxCell id="VsX81NJY4DJ-RuFfTPW--62" value="Circuit Breaker" style="text;html=1;align=center;verticalAlign=middle;resizable=0;points=[];autosize=1;strokeColor=none;fillColor=none;" vertex="1" parent="1">
          <mxGeometry x="760" y="670" width="100" height="30" as="geometry" />
        </mxCell>
        <mxCell id="VsX81NJY4DJ-RuFfTPW--75" style="edgeStyle=orthogonalEdgeStyle;rounded=0;orthogonalLoop=1;jettySize=auto;html=1;exitX=1;exitY=0.8;exitDx=0;exitDy=0;entryX=0;entryY=0.313;entryDx=0;entryDy=0;entryPerimeter=0;" edge="1" parent="1" source="VsX81NJY4DJ-RuFfTPW--63" target="VsX81NJY4DJ-RuFfTPW--9">
          <mxGeometry relative="1" as="geometry" />
        </mxCell>
        <mxCell id="VsX81NJY4DJ-RuFfTPW--63" value="" style="pointerEvents=1;verticalLabelPosition=bottom;shadow=0;dashed=0;align=center;html=1;verticalAlign=top;shape=mxgraph.electrical.electro-mechanical.circuitBreaker2;elSwitchState=off;" vertex="1" parent="1">
          <mxGeometry x="670" y="525" width="75" height="20" as="geometry" />
        </mxCell>
        <mxCell id="VsX81NJY4DJ-RuFfTPW--70" style="edgeStyle=orthogonalEdgeStyle;rounded=0;orthogonalLoop=1;jettySize=auto;html=1;exitX=1;exitY=0.8;exitDx=0;exitDy=0;entryX=0.5;entryY=0;entryDx=0;entryDy=0;" edge="1" parent="1" source="VsX81NJY4DJ-RuFfTPW--68" target="VsX81NJY4DJ-RuFfTPW--9">
          <mxGeometry relative="1" as="geometry" />
        </mxCell>
        <mxCell id="VsX81NJY4DJ-RuFfTPW--68" value="" style="pointerEvents=1;verticalLabelPosition=bottom;shadow=0;dashed=0;align=center;html=1;verticalAlign=top;shape=mxgraph.electrical.electro-mechanical.circuitBreaker2;elSwitchState=off;direction=south;" vertex="1" parent="1">
          <mxGeometry x="900" y="395" width="20" height="75" as="geometry" />
        </mxCell>
        <mxCell id="G7OIgcJiK2O93Vyy5NFV-1" value="&lt;b&gt;&lt;font style=&quot;font-size: 14px;&quot;&gt;Microservices with Resilient&lt;/font&gt;&lt;/b&gt;" style="text;html=1;align=center;verticalAlign=middle;resizable=0;points=[];autosize=1;strokeColor=none;fillColor=none;" vertex="1" parent="1">
          <mxGeometry x="480" y="50" width="210" height="30" as="geometry" />
        </mxCell>
      </root>
    </mxGraphModel>
  </diagram>
</mxfile>
